<?xml version="1.0" encoding="UTF-8"?>
<svg version="1.1" xmlns="http://www.w3.org/2000/svg" width="512" height="512">
<path d="M0 0 C5.90601882 4.8171997 9.93129338 10.80764948 10.72265625 18.5234375 C11.44346556 25.73153062 9.46188823 32.86228483 5.109375 38.6796875 C2.40021126 41.51499855 0.57096266 43.29250697 -3.28442383 44.34204102 C-6.42961699 46.18106612 -6.42961699 46.18106612 -7.03198242 48.91622925 C-7.54343965 52.23018115 -7.86864145 55.52101777 -8.140625 58.86328125 C-8.26293991 60.09575089 -8.38525482 61.32822052 -8.51127625 62.59803772 C-8.83190869 65.88158722 -9.12797795 69.16615782 -9.41241455 72.45300293 C-9.70420614 75.75515626 -10.02871996 79.05408265 -10.34960938 82.35351562 C-11.41167865 93.40294439 -12.36832929 104.46044953 -13.27734375 115.5234375 C-11.99633789 115.76042358 -11.99633789 115.76042358 -10.68945312 116.00219727 C5.34515837 119.08409084 19.34247807 127.03474646 29.22265625 140.1484375 C34.71398886 148.28416184 36.95190197 154.67742028 35.72265625 164.5234375 C34.68031349 168.27692431 33.20837427 171.78858133 31.65625 175.35791016 C24.58655462 191.7564975 18.46926104 208.30556811 13.72265625 225.5234375 C13.38492187 226.74160156 13.0471875 227.95976562 12.69921875 229.21484375 C8.77227089 244.74767218 8.35087496 261.09856214 7.4619751 277.0246582 C1.97937273 373.88333589 1.97937273 373.88333589 -31.52734375 405.8359375 C-47.79297189 419.4049712 -66.97868748 423.86303152 -87.7842865 423.77740479 C-89.56770245 423.78208476 -89.56770245 423.78208476 -91.38714701 423.78685927 C-94.64792839 423.79339977 -97.90855772 423.79112242 -101.16933501 423.78488684 C-104.70293473 423.78032553 -108.23651528 423.78736502 -111.77011108 423.79284668 C-118.68396802 423.80171027 -125.59778135 423.79983022 -132.51163995 423.7940214 C-138.14935559 423.7894838 -143.78705912 423.78890106 -149.42477608 423.79106903 C-150.2307748 423.7913755 -151.03677353 423.79168196 -151.86719646 423.79199772 C-153.50547373 423.79263728 -155.143751 423.79328571 -156.78202827 423.7939429 C-172.13109397 423.7996397 -187.48013576 423.79310326 -202.82919753 423.78234217 C-215.91519652 423.77344982 -229.0011599 423.7749241 -242.0871582 423.78417969 C-257.34676925 423.7949679 -272.6063592 423.79904597 -287.86597353 423.79295516 C-289.50548811 423.79231822 -291.1450027 423.79168948 -292.78451729 423.79106903 C-293.99386323 423.7906062 -293.99386323 423.7906062 -295.2276404 423.79013403 C-300.82648317 423.78842928 -306.4253121 423.79131435 -312.02415276 423.79602814 C-370.12294044 423.84051032 -370.12294044 423.84051032 -392.56469727 422.62011719 C-393.29595632 422.58049252 -394.02721538 422.54086785 -394.78063381 422.50004244 C-420.90725031 421.01984675 -452.86092173 418.60357595 -475.27734375 403.5234375 C-476.42097487 401.23617527 -476.54236307 399.69491323 -476.65234375 397.1484375 C-476.70132812 396.37757813 -476.7503125 395.60671875 -476.80078125 394.8125 C-476.00502262 391.3325406 -474.22794389 390.44366934 -471.27734375 388.5234375 C-468.74296187 387.31946867 -466.24373573 386.207769 -463.65234375 385.1484375 C-434.72232355 372.83904908 -413.84723055 352.31501308 -401.27734375 323.5234375 C-400.59913429 321.2738586 -400.59913429 321.2738586 -400.27734375 319.5234375 C-400.89480469 318.97816406 -401.51226562 318.43289063 -402.1484375 317.87109375 C-404.87675276 315.44177194 -407.58129117 312.98850805 -410.27734375 310.5234375 C-411.03015625 309.83894531 -411.78296875 309.15445312 -412.55859375 308.44921875 C-437.89327355 284.35373524 -450.45771881 249.58711244 -451.62890625 215.13061523 C-452.11805872 172.45715735 -433.107925 132.1220565 -403.70263672 101.90527344 C-395.91949381 94.16287997 -387.46673176 87.51299191 -378.27734375 81.5234375 C-377.63313477 81.10320312 -376.98892578 80.68296875 -376.32519531 80.25 C-341.08987056 57.63909641 -297.23501498 49.84537009 -256.27734375 58.5234375 C-217.98614757 67.31052942 -185.66395558 86.55959029 -158.27734375 114.5234375 C-157.08818359 115.69132812 -157.08818359 115.69132812 -155.875 116.8828125 C-130.30378586 142.87700913 -114.9157328 176.84461058 -105.27734375 211.5234375 C-103.93535321 207.58883743 -102.60410978 203.65069701 -101.27734375 199.7109375 C-100.87016113 198.50219971 -100.46297852 197.29346191 -100.04345703 196.0480957 C-97.57131815 188.6321587 -95.27800568 181.19501348 -93.13842773 173.67456055 C-88.96196656 159.00472773 -84.55989385 146.13502468 -74.27734375 134.5234375 C-73.53291016 133.62238281 -73.53291016 133.62238281 -72.7734375 132.703125 C-66.59786127 125.80009995 -57.68076701 121.08277642 -49.05249023 117.91113281 C-48.34245346 117.6489093 -47.63241669 117.38668579 -46.90086365 117.11651611 C-46.36510208 116.92080017 -45.82934052 116.72508423 -45.27734375 116.5234375 C-51.73620057 109.92504431 -58.2115176 103.3433713 -64.70794487 96.78196335 C-67.72459104 93.73411638 -70.73544756 90.68099303 -73.73339844 87.61474609 C-76.6313614 84.65118908 -79.544096 81.70289477 -82.46728897 78.76422882 C-83.57526107 77.64524199 -84.67797441 76.52102072 -85.77505112 75.39134979 C-91.34154344 69.6662755 -96.27794285 64.64874165 -104.13796997 62.26715088 C-109.28616215 60.47747792 -112.90667181 56.47782606 -115.65234375 51.8984375 C-118.98740572 44.97177033 -119.68949699 37.18882226 -117.44140625 29.76171875 C-114.07896691 22.39368891 -108.87993773 16.8488876 -101.40234375 13.5859375 C-93.84030289 11.22279973 -86.77271784 11.97607115 -79.6015625 15.20703125 C-73.12053867 18.87779601 -69.38817683 23.85633145 -66.9375 30.84765625 C-64.88865484 39.15214699 -65.92962413 46.19400476 -70.27734375 53.5234375 C-72.52734375 56.5859375 -72.52734375 56.5859375 -74.27734375 58.5234375 C-72.81865621 61.88342768 -70.96865427 64.07546856 -68.37841797 66.64941406 C-67.17739944 67.85020599 -67.17739944 67.85020599 -65.95211792 69.07525635 C-65.08748932 69.92956238 -64.22286072 70.78386841 -63.33203125 71.6640625 C-62.44701935 72.54624451 -61.56200745 73.42842651 -60.650177 74.33734131 C-58.30284244 76.67538293 -55.9512759 79.00899624 -53.59753418 81.34057617 C-51.19420448 83.72340276 -48.79656608 86.11194098 -46.3984375 88.5 C-41.69662908 93.17975612 -36.98915711 97.85375617 -32.27734375 102.5234375 C-30.68156958 100.92766333 -30.93368877 99.12680549 -30.72070312 96.9152832 C-30.62390259 95.93368729 -30.52710205 94.95209137 -30.42736816 93.94075012 C-30.32629761 92.87104477 -30.22522705 91.80133942 -30.12109375 90.69921875 C-30.01390015 89.60506149 -29.90670654 88.51090424 -29.79626465 87.3835907 C-29.45243054 83.86809975 -29.11454333 80.35207054 -28.77734375 76.8359375 C-28.43932854 73.33774457 -28.10002929 69.83968676 -27.75842285 66.34184265 C-27.54576948 64.16173601 -27.33531601 61.98141339 -27.12731934 59.80085754 C-26.66198929 55.00646212 -26.16563828 50.26252937 -25.27734375 45.5234375 C-26.12296875 45.3584375 -26.96859375 45.1934375 -27.83984375 45.0234375 C-33.72183345 42.45675109 -36.94252176 37.71943496 -40.21484375 32.3359375 C-42.5779677 23.85649275 -42.21725208 15.40325416 -38.27734375 7.5234375 C-34.60212702 1.67031456 -29.07326459 -1.4464864 -22.71484375 -3.7890625 C-14.69113933 -5.39380338 -6.95361187 -4.50851678 0 0 Z " fill="#010100" transform="translate(476.27734375,46.4765625)"/>
<path d="M0 0 C37.5641054 -0.81456776 37.5641054 -0.81456776 53 4 C54.39052089 4.39045957 55.78248339 4.77581854 57.17578125 5.15625 C60.46408806 6.06068339 63.73529311 7.01323972 67 8 C65.99009182 13.30788952 63.0351205 16.53320633 59 20 C56.54571181 21.49002813 54.00554569 22.78081713 51.4375 24.0625 C41.41575067 29.07884837 36.52660111 35.42019667 33 46 C32.59040817 52.51536768 32.35384761 58.95165169 35 65 C37.48018054 67.61424435 39.02317913 68.80940081 42.5625 69.5 C45.94009751 68.80715949 46.94549643 67.77119087 49 65 C49.23268923 61.37150229 49.09468236 57.98842602 48.84375 54.375 C48.61692869 49.02579748 49.47058408 46.2843367 53 42 C55.87927083 39.20299405 58.72657271 37.61726273 62.375 36.0625 C72.27536057 31.79368782 77.32872887 25.67150501 82 16 C86.63298807 16.59351855 90.30942035 18.53733318 94.3125 20.8125 C95.00746582 21.20630859 95.70243164 21.60011719 96.41845703 22.00585938 C107.97508194 28.73141487 119.8456992 37.18553328 129 47 C129 47.66 129 48.32 129 49 C122.31689093 52.16490848 116.30148234 53.29551288 109 53.5 C97.70169302 53.87945125 88.01474032 56.50281901 80 65 C75.32998242 71.94112086 72.10558275 78.50303612 73 87 C74.83333333 90.16666667 74.83333333 90.16666667 78 92 C81.0506516 92.27998332 82.94456065 91.80142672 86 91 C87.9161254 88.12581191 88.32916601 86.88886449 88.875 83.625 C90.12061298 77.80270297 92.30185308 75.19869195 97.1875 71.75 C102.03909221 69.47327516 107.1050531 69.60013613 112.35595703 69.42602539 C122.70199454 68.99221746 131.90204839 65.89889702 141 61 C141.66 61 142.32 61 143 61 C144.94895967 63.31381951 146.76806397 65.63229709 148.5625 68.0625 C149.09609131 68.77970215 149.62968262 69.4969043 150.17944336 70.23583984 C156.54377831 78.92269559 162.5365982 88.17767311 167 98 C166.10029196 102.24148075 162.31176356 104.49928058 159 107 C155.76127868 108.07957377 153.33971795 108.13326784 149.9375 108.125 C148.87402344 108.12757813 147.81054688 108.13015625 146.71484375 108.1328125 C144 108 144 108 142 107 C131.05471032 106.01188357 122.09580072 108.33562797 113.26953125 114.91015625 C108.41796844 119.37760221 105.75428541 124.57834683 103.8125 130.8125 C103.74009367 134.15709743 103.74009367 134.15709743 106 137 C108.90177184 139.33513137 108.90177184 139.33513137 112.625 139 C116.52269265 137.89277429 116.52269265 137.89277429 119 135 C119.598125 133.865625 120.19625 132.73125 120.8125 131.5625 C123.3700312 126.90976055 127.00549134 124.66483622 132 123 C135.68382769 122.86843473 138.49053585 122.83017862 142 124 C151.41569502 124.65193802 159.51582045 124.60792137 168 120 C168.71285156 119.6184375 169.42570312 119.236875 170.16015625 118.84375 C171.79507316 117.93365709 173.40166179 116.97290152 175 116 C177.95294665 122.94438558 180.25072199 129.89817184 182.1875 137.1875 C182.44724609 138.13302734 182.70699219 139.07855469 182.97460938 140.05273438 C184.31509383 145.02326459 185.41463871 149.87326435 186 155 C186.1134375 155.81726563 186.226875 156.63453125 186.34375 157.4765625 C186.75282855 163.10139252 186.75282855 163.10139252 184.6484375 165.61328125 C177.63863594 170.84747228 170.52433981 171.59658906 162 171 C160.2861198 170.69647313 158.57732986 170.36274913 156.875 170 C142.96413963 167.2258112 129.43837874 168.27465813 117.1015625 175.5546875 C111.2991104 179.54522147 106.77718318 184.51990591 104 191 C104.05908343 194.54500551 104.34387863 196.87001319 106.125 199.9375 C109.18452459 201.6712306 111.56817525 201.42145216 115 201 C117.26602329 199.30048253 118.74262613 197.33945526 120.4453125 195.09375 C124.8895209 189.55399255 128.95118262 186.42795397 136 185 C141.72450399 184.4994107 148.32359542 184.02934614 153.90209961 185.50219727 C158.22966397 186.52906841 162.76122699 186.22768734 167.1875 186.25 C168.19103516 186.270625 169.19457031 186.29125 170.22851562 186.3125 C176.71145616 186.34624335 182.0059512 185.49822685 188 183 C188.23747544 195.52408939 188.03245666 207.62049123 186 220 C185.86722656 220.92683594 185.73445313 221.85367188 185.59765625 222.80859375 C184.67416159 228.16486276 183.08939386 230.51526359 179 234 C175.9732656 235.84432994 172.8333428 237.37315932 169.625 238.875 C168.71032959 239.30554688 167.79565918 239.73609375 166.85327148 240.1796875 C138.05755079 253.29993451 105.07382258 258.51790511 74.76953125 247.50390625 C69.02486023 245.30980374 63.47673241 242.79645276 58 240 C59.44389083 236.77845463 61.25838222 234.41253611 63.5625 231.75 C80.6098042 210.56440095 88.24215275 183.952642 86 157 C83.59389182 140.11603138 75.69432727 121.30807618 63.26953125 109.33203125 C62 108 62 108 62 106 C61.40960938 105.73445313 60.81921875 105.46890625 60.2109375 105.1953125 C57.94283948 103.96909696 56.46647902 102.66648412 54.625 100.875 C46.74213127 93.8793176 37.34426108 89.27522684 27.5625 85.5625 C26.58796875 85.19209595 26.58796875 85.19209595 25.59375 84.81420898 C13.37966738 80.41419231 -2.52944072 80.37878496 -15 84 C-16.11181641 84.309375 -16.11181641 84.309375 -17.24609375 84.625 C-27.58820153 87.77961173 -35.88858588 92.90594969 -44 100 C-44.61617188 100.52078125 -45.23234375 101.0415625 -45.8671875 101.578125 C-56.36716436 111.15874904 -64.9029996 126.89689174 -66.19287109 141.12792969 C-66.80790019 158.63948546 -64.81430927 172.62804214 -54 187 C-53.25169922 188.05574219 -53.25169922 188.05574219 -52.48828125 189.1328125 C-44.86377111 198.92752326 -32.15116674 206.02068373 -20 208 C-9.51831378 209.00227843 0.4785191 208.93820727 10 204 C11.27037109 203.38125 11.27037109 203.38125 12.56640625 202.75 C22.7735507 197.26463382 29.71294957 188.67458341 34 178 C34.36480469 177.113125 34.72960937 176.22625 35.10546875 175.3125 C37.63488898 165.94591331 37.72587473 152.854635 33.32421875 144.09765625 C27.03476522 134.13471659 19.43412182 126.66056418 8 123 C3.89639971 122.46182291 2.0118939 122.32540407 -1.4375 124.625 C-3.49791771 127.75683492 -3.6767545 129.31544773 -3 133 C-0.2489868 136.75971804 2.80780985 138.46276037 6.9375 140.375 C12.70612634 143.10886464 16.34085145 146.58444248 19.1328125 152.33203125 C21.61640359 159.97298942 20.66819632 168.50792331 17.3203125 175.71875 C12.84491847 183.45138348 6.70835994 188.75428294 -1.8203125 191.609375 C-10.94604598 193.24481111 -20.02073633 192.88214986 -28 188 C-28.74636719 187.5875 -29.49273437 187.175 -30.26171875 186.75 C-39.75256833 181.07804915 -45.86620803 172.53449842 -49 162 C-52.46296126 148.12475658 -49.46175226 136.15292162 -42.8125 123.875 C-35.28916911 111.59006728 -23.0355387 102.03448256 -8.8984375 98.39453125 C9.000146 95.95820115 25.09607209 99.79918965 40.203125 109.86328125 C49.25283531 116.77695659 56.58219126 124.94873016 62 135 C62.47050781 135.87140625 62.94101563 136.7428125 63.42578125 137.640625 C72.73444357 156.42270473 71.62287449 176.55306026 65.10083008 195.96240234 C60.41510554 209.11647467 52.86443354 220.11879021 43 230 C42.24203125 230.76957031 41.4840625 231.53914062 40.703125 232.33203125 C22.25375063 250.02775471 -1.10513112 255.79483215 -26.01953125 255.3046875 C-54.07564445 254.23259222 -79.05945551 238.05604246 -98.05859375 218.33203125 C-104.14609057 211.68874577 -109.99290922 203.52009053 -113 195 C-111.74445313 195.04640625 -110.48890625 195.0928125 -109.1953125 195.140625 C-95.51884679 195.501323 -87.04359229 194.42549019 -76.71484375 184.8046875 C-74.48091847 182.45372285 -74.04125393 181.37953616 -73.6875 178.125 C-73.75946005 174.96581945 -73.75946005 174.96581945 -75.5625 172.625 C-79.10132867 170.26578089 -80.79823986 170.24230555 -85 171 C-87.52954337 172.63383621 -89.7905721 174.41881789 -92.08203125 176.37109375 C-97.61449063 181.06974051 -106.52704852 179.23340809 -113.37109375 178.7734375 C-115.91783383 178.54161461 -118.45932421 178.29036295 -121 178 C-123.11597148 172.68932647 -124.71380816 167.62955168 -125.6875 162 C-125.81487549 161.2788501 -125.94225098 160.5577002 -126.07348633 159.81469727 C-127.30565428 152.20434539 -127.27924951 144.68453291 -127 137 C-126.5153125 137.38671875 -126.030625 137.7734375 -125.53125 138.171875 C-116.42769344 145.24463817 -106.85004955 150.24838447 -95 149 C-88.47046613 147.81065085 -88.47046613 147.81065085 -83.23828125 144.078125 C-81.50782019 141.17400739 -81.51549689 139.32230707 -82 136 C-83.34022701 133.61840351 -83.34022701 133.61840351 -86 132 C-90.1792963 131.49629527 -94.36915326 131.91232333 -98.55859375 132.15625 C-104.33169419 132.36273943 -107.41347463 131.88931883 -112 128 C-112.71285156 127.40058594 -113.42570312 126.80117187 -114.16015625 126.18359375 C-114.78792969 125.60738281 -115.41570312 125.03117187 -116.0625 124.4375 C-118.88805335 121.91022964 -121.6334826 119.78846237 -125 118 C-124.47266331 111.65940406 -123.34298487 106.12157813 -121.25 100.125 C-120.98558105 99.34850098 -120.72116211 98.57200195 -120.44873047 97.77197266 C-118.33173834 91.67437654 -115.87786004 85.78118786 -113 80 C-106.35872356 83.07262375 -102.71590914 89.89447545 -99 96 C-98.67 96.99 -98.34 97.98 -98 99 C-96.23122311 100.07316791 -96.23122311 100.07316791 -94 101 C-93.12085938 101.48597656 -92.24171875 101.97195312 -91.3359375 102.47265625 C-85.08067574 105.83135221 -79.25583416 108.6309421 -72 108 C-68.81810748 106.76622235 -68.81810748 106.76622235 -67 104 C-66.39192445 98.86647073 -66.39192445 98.86647073 -68.19140625 94.32421875 C-70.48138407 92.64753953 -72.40947265 92.29855265 -75.1875 91.75 C-82.16010534 89.95625588 -86.67275418 86.67056745 -90.54296875 80.56640625 C-91.50916851 78.8645477 -92.46632597 77.15752159 -93.4140625 75.4453125 C-95.94385791 71.54469198 -99.33723018 68.80750377 -103 66 C-101.29604823 54.32374036 -86.06552242 42.75173409 -78 35 C-77.01 35.495 -77.01 35.495 -76 36 C-74.94342459 39.16972624 -74.86298634 41.60843821 -74.75 44.9375 C-74.11044283 54.02327249 -71.18649526 62.20610338 -65 69 C-62.56180012 70.80292773 -62.56180012 70.80292773 -59.9375 72.25 C-58.65166016 73.00023437 -58.65166016 73.00023437 -57.33984375 73.765625 C-53.28451339 75.90499795 -50.03593882 76.18870353 -45.5 76.25 C-44.3553125 76.27578125 -43.210625 76.3015625 -42.03125 76.328125 C-39.04557865 76.24428882 -39.04557865 76.24428882 -37.125 74.73046875 C-35.14887383 71.69080246 -35.29405313 68.42591864 -36 65 C-38.84777053 61.392824 -41.65693396 60.78202288 -46 60.0625 C-50.76045888 59.25492215 -53.03795367 57.98024976 -56 54 C-57.8196166 50.21881089 -58.24055997 47.11031182 -58.375 42.9375 C-58.78572252 36.14895414 -60.5543486 30.31319315 -63 24 C-50.45426039 14.13602782 -33.08755423 5.21415504 -17 4 C-17.27387346 9.9430541 -18.28844435 15.25174568 -20.0625 20.9375 C-23.2403801 31.70504247 -22.8897156 40.75012969 -18 51 C-15.0762466 55.28048352 -11.97625588 59.16664257 -7 61 C-4.62698611 61.02977744 -4.62698611 61.02977744 -2.25 60.625 C-1.45078125 60.51414063 -0.6515625 60.40328125 0.171875 60.2890625 C0.77515625 60.19367188 1.3784375 60.09828125 2 60 C3.21260877 56.36217368 3.39544552 53.82264001 3 50 C0.77122275 47.35426499 0.77122275 47.35426499 -2 45 C-5.47066169 40.87272664 -6.62706123 37.92729525 -6.3984375 32.66015625 C-5.74849352 28.3208244 -4.3667424 24.21634843 -3.06835938 20.03320312 C-1.8923732 15.90558588 -1.33856954 11.79301369 -0.8671875 7.53515625 C-0.73848267 6.44080261 -0.73848267 6.44080261 -0.60717773 5.32434082 C-0.3993096 3.55019353 -0.1988629 1.77517924 0 0 Z " fill="#9E512C" transform="translate(170,120)"/>
<path d="M0 0 C5.05613397 3.91992409 10.01473846 9.55083836 11.92578125 15.66015625 C10.80557427 23.2602771 6.99309016 30.59238852 3.98828125 37.59765625 C-0.8988718 49.04986048 -5.17249507 60.31927595 -8.19921875 72.41015625 C-8.70111815 74.38429389 -9.20370558 76.35825676 -9.70703125 78.33203125 C-9.92246582 79.18893555 -10.13790039 80.04583984 -10.35986328 80.92871094 C-10.90145603 82.99957208 -11.4886763 85.05856708 -12.09692383 87.11083984 C-16.63678352 103.59859407 -16.22031707 121.74129172 -17.2487793 138.69238281 C-18.21477987 154.47800374 -19.49400684 170.05131148 -22.07421875 185.66015625 C-22.19171478 186.39285233 -22.30921082 187.1255484 -22.43026733 187.88044739 C-26.37725676 212.47631473 -33.80604954 238.18231533 -54.421875 253.90625 C-66.80006959 262.09153626 -79.16212357 263.81122098 -93.61459351 263.80059814 C-94.87952625 263.80356927 -96.14445899 263.80654039 -97.44772303 263.80960155 C-100.9482956 263.81763948 -104.44884762 263.81945935 -107.94942832 263.82019901 C-111.73048176 263.82205556 -115.51152469 263.82960666 -119.29257202 263.83633423 C-127.56270309 263.84990279 -135.8328293 263.85594207 -144.10296965 263.86034489 C-149.28149358 263.86311399 -154.46001567 263.86735294 -159.63853836 263.87184906 C-174.01265279 263.88404769 -188.38676574 263.8943407 -202.76088524 263.89772415 C-204.14055904 263.8980535 -204.14055904 263.8980535 -205.54810504 263.8983895 C-206.93090526 263.89871692 -206.93090526 263.89871692 -208.34164083 263.89905095 C-210.20936863 263.8994944 -212.07709642 263.89994096 -213.94482422 263.90039062 C-214.8712625 263.90061205 -215.79770079 263.90083348 -216.75221296 263.90106162 C-231.69950575 263.90499337 -246.64674931 263.92239473 -261.59402315 263.94575015 C-276.98856497 263.96960702 -292.38308228 263.98193273 -307.77764285 263.98309207 C-316.40097712 263.98400169 -325.02424751 263.98956977 -333.64756393 264.00791168 C-341.00592603 264.02350852 -348.36420459 264.02832095 -355.72258012 264.02017358 C-359.4613719 264.01633269 -363.19999656 264.01686261 -366.93876648 264.03123093 C-382.27471159 264.08658161 -397.47915663 263.68064565 -412.75527954 262.30584717 C-413.43268666 262.24620274 -414.11009378 262.18655832 -414.80802839 262.12510648 C-427.14850901 261.01273235 -439.08025845 258.72218648 -451.07421875 255.66015625 C-448.46933664 252.95763845 -445.74366349 251.06193275 -442.57421875 249.03515625 C-420.1611516 234.2188258 -404.92542251 215.54488999 -393.07421875 191.66015625 C-392.45740234 190.42845703 -392.45740234 190.42845703 -391.828125 189.171875 C-391.57933594 188.67300781 -391.33054687 188.17414063 -391.07421875 187.66015625 C-388.10821379 188.78978705 -385.23963298 190.04446165 -382.38671875 191.4296875 C-355.86539751 204.14598602 -326.26086382 207.35550517 -298.11743164 197.70874023 C-288.73015431 194.32689758 -278.40620112 190.02346658 -270.64453125 183.671875 C-268.07421875 182.66015625 -268.07421875 182.66015625 -266.32006836 183.19067383 C-264.18537893 184.24619017 -262.17152007 185.42308693 -260.13671875 186.66015625 C-258.60792338 187.52490462 -257.07531144 188.38293844 -255.5390625 189.234375 C-254.78093262 189.65509277 -254.02280273 190.07581055 -253.24169922 190.50927734 C-248.07586027 193.25221098 -242.67571638 195.03757121 -237.07421875 196.66015625 C-236.09122803 196.95212891 -236.09122803 196.95212891 -235.08837891 197.25 C-200.13424183 207.25324147 -163.03310062 198.68956807 -131.44921875 182.53515625 C-130.48314697 182.04466797 -129.5170752 181.55417969 -128.52172852 181.04882812 C-120.29162144 176.66100407 -115.93439278 172.07104976 -112.984375 163.1015625 C-110.29521546 152.93353868 -108.98372746 142.75654342 -109.0546875 132.234375 C-109.15074051 113.81366844 -106.25876547 100.37511988 -98.63232422 83.31152344 C-95.8356211 76.75754477 -93.55461411 70.02846292 -91.26171875 63.28515625 C-91.02869049 62.60727051 -90.79566223 61.92938477 -90.55557251 61.23095703 C-87.6567504 52.78752531 -85.08560397 44.3159635 -82.88671875 35.66015625 C-78.9747105 20.46759277 -72.58865641 6.15881348 -59.38671875 -3.21484375 C-40.47425323 -13.65571371 -17.70763264 -11.43826364 0 0 Z " fill="#A3C300" transform="translate(483.07421875,188.33984375)"/>
<path d="M0 0 C9.18791859 -0.5859642 17.76407176 4.1869332 24.9375 9.75 C29.08077551 13.75481129 33.27326134 18.47987484 35 24 C33.87979302 31.60012085 30.06730891 38.93223227 27.0625 45.9375 C22.17534695 57.38970423 17.90172368 68.6591197 14.875 80.75 C14.3731006 82.72413764 13.87051317 84.69810051 13.3671875 86.671875 C13.15175293 87.5287793 12.93631836 88.38568359 12.71435547 89.26855469 C12.17276272 91.33941583 11.58554245 93.39841083 10.97729492 95.45068359 C6.43743523 111.93843782 6.85390168 130.08113547 5.82543945 147.03222656 C4.85943888 162.81784749 3.58021191 178.39115523 1 194 C0.88250397 194.73269608 0.76500793 195.46539215 0.64395142 196.22029114 C-3.29992654 220.79676921 -10.72364683 246.55830289 -31.35546875 262.24609375 C-38.0477281 266.68453459 -45.17196437 269.37531336 -53 271 C-51.88273561 267.64820682 -51.04550033 266.98292595 -48.375 264.8125 C-31.63793451 250.45793494 -24.14837648 230.16274449 -19.25 209.1875 C-19.06348877 208.39666016 -18.87697754 207.60582031 -18.68481445 206.79101562 C-15.28634861 191.19070047 -13.83264901 175.32311502 -12.82421875 159.41796875 C-12.77712643 158.68325788 -12.7300341 157.94854702 -12.68151474 157.19157219 C-12.24266218 150.323787 -11.81517122 143.4553988 -11.42407227 136.5847168 C-9.67030721 106.04737855 -3.89761629 77.64806973 8.21484375 49.36328125 C8.49118652 48.71428864 8.7675293 48.06529602 9.05224609 47.39663696 C10.41301471 44.21016054 11.79737232 41.03800459 13.22705078 37.88183594 C16.08861867 31.31679338 18.28245046 26.04509535 16 19 C12.8113962 12.23370681 7.40577923 7.21147292 1.72265625 2.49609375 C1.15417969 2.00238281 0.58570313 1.50867188 0 1 C0 0.67 0 0.34 0 0 Z " fill="#8FAA00" transform="translate(460,180)"/>
<path d="M0 0 C1.13051688 -0.00852488 1.13051688 -0.00852488 2.28387249 -0.01722199 C4.79926323 -0.03010009 7.3130367 -0.00735907 9.82833862 0.0153656 C11.63552182 0.01350106 13.44270388 0.00946339 15.24987793 0.00341797 C20.15068225 -0.00655347 25.05090786 0.01460723 29.95162821 0.04189801 C35.0800251 0.06573295 40.20841061 0.06278309 45.33685303 0.0632019 C53.94674474 0.06782909 62.55641523 0.09146709 71.16622925 0.12767029 C81.12400639 0.16942972 91.08158441 0.18698675 101.03944409 0.19029003 C111.63858171 0.19388795 122.23764758 0.21275848 132.83675528 0.23741031 C135.89265694 0.24364179 138.94855315 0.24727627 142.00445938 0.25044441 C146.80287424 0.25634042 151.60114651 0.27264082 156.3995018 0.29704857 C158.16195321 0.30449539 159.92442257 0.30856094 161.68688965 0.30902863 C164.08942163 0.31028438 166.49157637 0.32381405 168.89404297 0.34057617 C169.94432857 0.33695355 169.94432857 0.33695355 171.01583207 0.33325773 C174.59837807 0.3724897 177.34613723 0.51911888 180.32003784 2.61473083 C182.82035439 6.36520565 182.85607338 8.17329349 182.32003784 12.61473083 C179.66104434 16.1001498 178.17289177 17.46247835 173.81114101 18.24114323 C172.43580838 18.26721041 171.05978908 18.26596374 169.68440247 18.24291992 C168.54291657 18.2535615 168.54291657 18.2535615 167.37837034 18.26441807 C164.832287 18.28199915 162.28773008 18.26389405 159.7416687 18.24583435 C157.91492518 18.25097311 156.08818661 18.25825406 154.26145935 18.26751709 C149.30278083 18.28604353 144.34463945 18.27308516 139.38598323 18.25342679 C134.19883893 18.23705177 129.01172895 18.24585147 123.8245697 18.25094604 C115.11455698 18.25546788 106.40475895 18.23959056 97.6947937 18.21165466 C87.62050882 18.17959235 77.54661096 18.17962212 67.47229856 18.19686943 C57.78505209 18.21272407 48.09794771 18.20600845 38.41070747 18.18893242 C34.28595772 18.18205439 30.1613216 18.18310205 26.03657341 18.19047737 C21.18143342 18.1981294 16.32673482 18.18604953 11.47167015 18.15862846 C9.68825847 18.15173255 7.90480565 18.15165955 6.12139511 18.15884399 C3.68999807 18.16751139 1.25997178 18.15163032 -1.17131042 18.12939453 C-1.87996484 18.1376353 -2.58861926 18.14587607 -3.31874806 18.15436655 C-6.70323625 18.09708835 -8.39830895 17.83791582 -11.08675289 15.70756435 C-12.98063247 13.21977148 -13.63351978 11.91328898 -14.11746216 8.80223083 C-13.60320715 5.05551577 -12.39757763 3.94206218 -9.47212434 1.65683353 C-6.44916233 -0.10095206 -3.39116006 -0.06434 0 0 Z " fill="#F4F4F2" transform="translate(141.67996215820313,417.38526916503906)"/>
<path d="M0 0 C0.23747544 12.52408939 0.03245666 24.62049123 -2 37 C-2.13277344 37.92683594 -2.26554687 38.85367188 -2.40234375 39.80859375 C-3.28479768 44.92682655 -4.9361767 47.8991955 -9 51 C-12.32260433 52.93991241 -15.76108173 54.57026649 -19.25 56.1875 C-20.60544922 56.84395508 -20.60544922 56.84395508 -21.98828125 57.51367188 C-27.62023425 60.16757779 -32.87430751 61.88112351 -39 63 C-35.5010624 60.3140274 -31.84692192 57.95378705 -28.12109375 55.59765625 C-21.77117407 50.81475174 -20.60783034 43.98409666 -19.4375 36.5 C-19.30819092 35.68426514 -19.17888184 34.86853027 -19.0456543 34.02807617 C-17.62042433 24.39614776 -17.28052726 14.72172054 -17 5 C-20.63 5 -24.26 5 -28 5 C-28 4.67 -28 4.34 -28 4 C-26.72125 3.96261719 -25.4425 3.92523438 -24.125 3.88671875 C-22.4166396 3.82101258 -20.70830753 3.75456689 -19 3.6875 C-18.16082031 3.66494141 -17.32164062 3.64238281 -16.45703125 3.61914062 C-10.86100721 3.38055045 -5.11290517 0 0 0 Z " fill="#763D21" transform="translate(358,303)"/>
<path d="M0 0 C0.86653702 -0.00478363 1.73307404 -0.00956726 2.62586975 -0.01449585 C4.45396749 -0.01789007 6.28212632 -0.00872098 8.11010742 0.01220703 C10.89836021 0.03894936 13.68257609 0.01246244 16.47070312 -0.01953125 C18.25131092 -0.01622643 20.03191621 -0.00981869 21.8125 0 C22.64079819 -0.01012115 23.46909637 -0.02024231 24.32249451 -0.03067017 C28.49466429 0.05317774 31.19242531 0.41364555 34.51342773 3.05859375 C36.97265625 5.6640625 36.97265625 5.6640625 37.48046875 8.015625 C37.29097656 9.14097656 37.29097656 9.14097656 37.09765625 10.2890625 C36.99710937 11.04445313 36.8965625 11.79984375 36.79296875 12.578125 C35.65830618 15.46340983 34.70807154 16.14718167 31.97265625 17.6640625 C28.9144372 18.13496711 25.87895203 18.13208925 22.7890625 18.1328125 C21.89654282 18.14042603 21.00402313 18.14803955 20.0844574 18.15588379 C18.19915562 18.1666763 16.31379409 18.16954134 14.4284668 18.16503906 C11.54829935 18.16406694 8.67079835 18.20569186 5.79101562 18.25 C3.95703679 18.25520741 2.12304872 18.25789519 0.2890625 18.2578125 C-0.56940781 18.27420776 -1.42787811 18.29060303 -2.31236267 18.30749512 C-6.67889386 18.25718024 -8.49186051 18.07200063 -12.07055664 15.34570312 C-14.02734375 12.6640625 -14.02734375 12.6640625 -14.65234375 9.1640625 C-13.1426789 0.70993934 -7.36241152 -0.08974358 0 0 Z " fill="#F3F4F1" transform="translate(364.02734375,417.3359375)"/>
<path d="M0 0 C2 1 2 1 2.73022461 2.66723633 C3.06292358 3.73880981 3.06292358 3.73880981 3.40234375 4.83203125 C3.65153564 5.62512695 3.90072754 6.41822266 4.1574707 7.23535156 C4.41488037 8.08581055 4.67229004 8.93626953 4.9375 9.8125 C5.33618286 11.10559082 5.33618286 11.10559082 5.74291992 12.42480469 C11.17229978 30.22637765 11.17229978 30.22637765 12 39 C12.14888672 40.11181641 12.14888672 40.11181641 12.30078125 41.24609375 C12.7876461 47.05983284 12.7876461 47.05983284 10.6484375 49.61328125 C3.53727651 54.92315697 -3.39508262 55.27560234 -12 55 C-12 54.67 -12 54.34 -12 54 C-9.36 54 -6.72 54 -4 54 C-5.09199903 39.25801308 -8.32925489 25.29479667 -12 11 C-12.33445225 9.6669469 -12.66822362 8.33372161 -13 7 C-12.39671875 6.74605469 -11.7934375 6.49210938 -11.171875 6.23046875 C-5.24324364 3.70431624 -5.24324364 3.70431624 0 0 Z " fill="#763D21" transform="translate(344,236)"/>
<path d="M0 0 C1.94895967 2.31381951 3.76806397 4.63229709 5.5625 7.0625 C6.36288696 8.13830322 6.36288696 8.13830322 7.17944336 9.23583984 C13.54377831 17.92269559 19.5365982 27.17767311 24 37 C23.10045129 41.24072962 19.33562113 43.53164036 16 46 C13.8046875 46.64453125 13.8046875 46.64453125 12 47 C11.74943848 46.44763672 11.49887695 45.89527344 11.24072266 45.32617188 C4.75585271 31.12710064 -1.96976933 17.09123697 -12 5 C-10.37750059 4.16180842 -8.75191503 3.3295884 -7.125 2.5 C-6.22007812 2.0359375 -5.31515625 1.571875 -4.3828125 1.09375 C-2 0 -2 0 0 0 Z " fill="#763D21" transform="translate(313,181)"/>
<path d="M0 0 C4.63298807 0.59351855 8.30942035 2.53733318 12.3125 4.8125 C13.00746582 5.20630859 13.70243164 5.60011719 14.41845703 6.00585938 C25.97508194 12.73141487 37.8456992 21.18553328 47 31 C47 31.66 47 32.32 47 33 C44.03 33.99 41.06 34.98 38 36 C36.97003906 34.92363281 35.94007813 33.84726563 34.87890625 32.73828125 C25.74250519 23.32380641 16.34860005 14.9774312 5.73242188 7.27490234 C3.43372669 5.58327519 1.21110443 3.80402125 -1 2 C-0.67 1.34 -0.34 0.68 0 0 Z " fill="#763D21" transform="translate(252,136)"/>
<path d="M0 0 C4.12071155 0.73584135 5.82805171 1.38627481 8.5 4.625 C9.15466318 7.42741781 9.11113838 9.81722271 8.5 12.625 C6.36398066 15.95719018 4.8672811 16.51815459 1.0625 17.625 C-2.5 17.625 -2.5 17.625 -5.375 16.125 C-8.17946009 12.82563519 -8.64905149 10.94749312 -8.5 6.625 C-6.0768816 2.46026525 -4.80003453 0.85714902 0 0 Z " fill="#9EBD00" transform="translate(460.5,59.375)"/>
<path d="M0 0 C2.9375 1.5 2.9375 1.5 5 4 C5.7975483 9.02455429 5.82360163 10.83726829 2.875 15 C0 17 0 17 -3 17.625 C-7.14182881 16.762119 -8.56226471 15.44150865 -11 12 C-11.89291241 8.07894985 -11.6077527 4.97240433 -9.4375 1.5 C-6.03618625 -0.59311615 -3.92927257 -0.55147685 0 0 Z " fill="#9FBE00" transform="translate(387,77)"/>
</svg>
